<svg width="32" height="31" viewBox="0 0 32 31" fill="none" xmlns="http://www.w3.org/2000/svg">
<path d="M0.00195312 0H17.4134C21.3457 0 24.5401 3.08737 24.5401 6.88789C24.5401 10.6884 21.3457 13.7758 17.4134 13.7758H0.00195312V0Z" fill="#D71716"/>
<path d="M14.873 16.3232H23.8955C27.8278 16.3232 31.0222 19.4106 31.0222 23.2111C31.0222 27.0116 27.8278 30.099 23.8955 30.099H14.873V16.3232Z" fill="#D71716"/>
<path d="M6.21399 30.0994C9.64588 30.0994 12.428 27.4106 12.428 24.0937C12.428 20.7768 9.64588 18.0879 6.21399 18.0879C2.7821 18.0879 0 20.7768 0 24.0937C0 27.4106 2.7821 30.0994 6.21399 30.0994Z" fill="#D71716"/>
</svg>
